<?xml version="1.0" encoding="UTF-8" standalone="no"?>
<!-- Created with Inkscape (http://www.inkscape.org/) -->

<svg
   id="svg2"
   sodipodi:docname="AAGIPalettes-hex.svg"
   viewBox="0 0 41.480312 48.000027"
   version="1.1"
   inkscape:version="1.3.2 (091e20e, 2023-11-25)"
   width="4.3899999cm"
   height="5.0800028cm"
   inkscape:export-filename="../../man/figures/logo.png"
   inkscape:export-xdpi="90.709999"
   inkscape:export-ydpi="90.709999"
   xml:space="preserve"
   xmlns:inkscape="http://www.inkscape.org/namespaces/inkscape"
   xmlns:sodipodi="http://sodipodi.sourceforge.net/DTD/sodipodi-0.dtd"
   xmlns="http://www.w3.org/2000/svg"
   xmlns:svg="http://www.w3.org/2000/svg"
   xmlns:rdf="http://www.w3.org/1999/02/22-rdf-syntax-ns#"
   xmlns:cc="http://creativecommons.org/ns#"
   xmlns:dc="http://purl.org/dc/elements/1.1/"><title
     id="title1">AAGIPalettes</title><defs
     id="defs4"><style
   id="style22186">.cls-1{fill:none;}.cls-2{fill:#ba6f38;}.cls-3{clip-path:url(#clip-path);}.cls-4{fill:#ed7d15;}.cls-5{opacity:0.25;fill:url(#linear-gradient);}.cls-6{fill:#ac5d12;}.cls-7{clip-path:url(#clip-path-2);}.cls-8{fill:#36a85d;}.cls-9{fill:#e6b35a;}.cls-10{fill:#fff;}.cls-11{opacity:0.94;}</style><clipPath
   id="clip-path"><polygon
     id="polygon22189"
     points="369.5,7.4 369.5,7.4 728.2,214.5 728.2,636.6 369.5,845 2.8,636.6 2.8,214.5 "
     class="cls-1"
     style="fill:none" /></clipPath>
	
	
	
	
	
	
	
	
	
	
	

	
	
	
	
	
	
	
	
	
</defs><sodipodi:namedview
     id="base"
     bordercolor="#666666"
     inkscape:pageshadow="2"
     inkscape:window-y="660"
     pagecolor="#ffffff"
     inkscape:window-height="1297"
     inkscape:window-maximized="0"
     inkscape:zoom="5.8645801"
     inkscape:window-x="0"
     showgrid="false"
     borderopacity="1.0"
     inkscape:current-layer="layer1"
     inkscape:cx="82.955641"
     inkscape:cy="96.000053"
     inkscape:window-width="1440"
     inkscape:pageopacity="0.0"
     inkscape:document-units="px"
     fit-margin-top="0"
     fit-margin-left="0"
     fit-margin-right="0"
     fit-margin-bottom="0"
     units="cm"
     inkscape:pagecheckerboard="0"
     inkscape:showpageshadow="2"
     inkscape:deskcolor="#d1d1d1" /><g
     id="layer1"
     inkscape:label="Layer 1"
     inkscape:groupmode="layer"
     transform="translate(1791.8024,11.011019)"><path
       id="path20972"
       d="m -1751.9761,0.11992064 -15.6821,-9.07389964 -3.404,-1.968652 -3.404,1.968652 -15.6822,9.07389964 -1.654,0.95604036 v 24.002842 l 1.654,0.95604 15.8741,9.18704 3.2121,1.85551 3.2121,-1.85551 15.874,-9.18704 1.654,-0.95604 V 1.075961 Z"
       class="cls-6"
       inkscape:connector-curvature="0"
       style="fill:#ffffff;fill-opacity:1;stroke:#bfd7df;stroke-width:0.167415;stroke-opacity:1"
       sodipodi:nodetypes="ccccccccccccccc" /><text
       xml:space="preserve"
       style="font-style:normal;font-weight:normal;line-height:0%;font-family:sans-serif;letter-spacing:0px;word-spacing:0px;fill:#000000;fill-opacity:1;stroke:none;stroke-width:1px;stroke-linecap:butt;stroke-linejoin:miter;stroke-opacity:1"
       x="-1128.9001"
       y="-11.74138"
       id="text5476"><tspan
         sodipodi:role="line"
         id="tspan5478"
         x="-1128.9001"
         y="-11.74138"
         style="font-size:40px;line-height:1.25"> </tspan></text><g
       transform="matrix(0.72484839,1.2953625,-1.2953626,0.72484843,-671.26984,-964.12141)"
       id="g4147"
       style="fill:#004878;fill-opacity:1" /><path
       id="path22209"
       d="m -1751.9761,0.03153225 -15.6821,-9.07389955 -3.404,-1.9686517 -3.404,1.9686517 -15.6822,9.07389955 -1.654,0.95604048 V 24.990414 l 1.654,0.95604 15.8741,9.18704 3.2121,1.85551 3.2121,-1.85551 15.874,-9.18704 1.654,-0.95604 V 0.98757273 Z m 0,24.05941175 -19.0861,11.04255 -19.0862,-11.04255 V 2.0001839 l 19.0862,-11.0425512 v 0 l 19.0861,11.0425512 z"
       class="cls-6"
       inkscape:connector-curvature="0"
       style="fill:#00808c;fill-opacity:1;stroke-width:0.167415;stroke:#b7d539;stroke-opacity:1" /><text
       inkscape:transform-center-y="-11.093648"
       inkscape:transform-center-x="-7.5419144"
       transform="matrix(0.86824171,-0.49401314,0.49510346,0.87004848,0,0)"
       id="text4366"
       y="-845.04083"
       x="-1556.5669"
       style="font-style:normal;font-variant:normal;font-weight:normal;font-stretch:normal;font-size:3.33333px;line-height:0%;font-family:Madani-SemiBold;-inkscape-font-specification:'Madani-SemiBold, Normal';font-variant-ligatures:normal;font-variant-caps:normal;font-variant-numeric:normal;font-variant-east-asian:normal;letter-spacing:0px;word-spacing:0px;fill:#31859c;fill-opacity:1;stroke:none;stroke-width:0.125561px;stroke-linecap:butt;stroke-linejoin:miter;stroke-opacity:1"
       xml:space="preserve"><tspan
         style="font-style:normal;font-variant:normal;font-weight:bold;font-stretch:normal;font-size:3.33333px;line-height:1.25;font-family:'Proxima Nova';-inkscape-font-specification:'Proxima Nova Bold';font-variant-ligatures:normal;font-variant-caps:normal;font-variant-numeric:normal;font-variant-east-asian:normal;fill:#404042;fill-opacity:1;stroke-width:0.125561px"
         y="-845.04083"
         x="-1556.5669"
         id="tspan4368"
         sodipodi:role="line">AAGIPalettes</tspan></text><path
       class="st0"
       d="m -1786.6805,14.197559 -2.3719,-2.08875 c -0.7218,-0.635625 -0.9637,-1.66125 -0.6056,-2.551875 l 0.6675,-1.719375 2.3719,2.08875 c 0.7219,0.635625 0.9637,1.66125 0.6056,2.551875 z m -2.0119,-5.143125 -0.2962,0.765 c -0.2475,0.613125 -0.081,1.314375 0.4125,1.749375 l 1.5994,1.41 0.2962,-0.765 c 0.2475,-0.613125 0.081,-1.314375 -0.4125,-1.749375 z"
       id="path1"
       style="stroke-width:0.1875;fill:#b7d539;fill-opacity:1" /><path
       class="st0"
       d="m -1782.2424,5.527559 -0.6843,-2.51625 c -0.1463,-0.706875 0.1781,-1.42125 0.8062,-1.779375 l 1.9631,-1.156875 0.7013,2.180625 c 0.2269,0.68625 -0.011,1.4325 -0.5925,1.86 l -0.019,0.013125 z m 0.01,-2.67 0.4237,1.550625 1.3519,-0.87 c 0.3262,-0.245625 0.4594,-0.67125 0.33,-1.063125 v -0.00375 l -0.4294,-1.33875 -1.2056,0.70875 c -0.3619,0.21 -0.5494,0.615 -0.4706,1.01625 z"
       id="path2"
       style="stroke-width:0.1875;fill:#b7d539;fill-opacity:1" /><path
       class="st0"
       d="m -1780.0392,11.058809 c -0.01,0 -0.017,0 -0.024,0 l -3.1594,-0.03375 0.6563,-1.72875 c 0.3281,-0.898125 1.1887,-1.498125 2.1562,-1.486875 l 3.1594,0.03375 -0.6563,1.72875 c -0.3262,0.88875 -1.1812,1.486875 -2.1318,1.486875 z m -2.1488,-0.7425 2.1319,0.0225 c 0.6525,-0.0019 1.2506,-0.403125 1.4756,-1.02 l 0.2925,-0.7725 -2.1319,-0.0225 c -0.6543,-0.013125 -1.2506,0.403125 -1.4756,1.02 z"
       id="path3"
       style="stroke-width:0.1875;fill:#b7d539;fill-opacity:1" /><path
       class="st0"
       d="m -1784.3592,8.154434 -2.3719,-2.08875 c -0.7219,-0.635625 -0.9638,-1.66125 -0.6056,-2.551875 l 0.6675,-1.719375 2.3718,2.08875 c 0.7219,0.635625 0.9638,1.66125 0.6057,2.551875 z m -1.8975,-2.626875 1.5993,1.41 0.2963,-0.765 c 0.2475,-0.613125 0.081,-1.314375 -0.4125,-1.749375 l -1.5994,-1.41 -0.2981,0.765 c -0.2456,0.613125 -0.079,1.314375 0.4144,1.749375 z"
       id="path4"
       style="stroke-width:0.1875;fill:#b7d539;fill-opacity:1" /><path
       class="st1"
       d="m -1783.6355,10.209434 v 0 0 l -3.3356,-3.0225 c 0.037,-0.121875 0.051,-0.25125 0.03,-0.38625 -0.075,-0.466875 -0.5138,-0.78375 -0.9806,-0.70875 -0.4669,0.075 -0.7838,0.51375 -0.7088,0.980625 0.075,0.466875 0.5138,0.78375 0.9806,0.70875 0.043,-0.0075 0.084,-0.020625 0.1238,-0.03375 l 2.9869,2.7075 -2.0082,5.23125 h 0.81 z"
       id="path5"
       style="stroke-width:0.1875" /><path
       class="st1"
       d="m -1776.9474,5.844434 c -0.2962,-0.3675 -0.8362,-0.425625 -1.2037,-0.129375 -0.09,0.073125 -0.1613,0.16125 -0.2138,0.256875 l -4.4587,0.015 -0.195,0.51 v 0 l -0.78,2.034375 0.5963,0.556875 0.8868,-2.311875 3.9544,-0.013125 c 0.026,0.0525 0.043,0.10875 0.081,0.1575 0.2963,0.3675 0.8363,0.425625 1.2038,0.129375 0.3712,-0.3 0.4294,-0.838125 0.1312,-1.205625"
       id="path6"
       style="stroke-width:0.1875" /><path
       class="st0"
       d="m -1781.5355,14.983184 c -0.01,0 -0.017,0 -0.024,0 l -3.1593,-0.03375 0.6562,-1.72875 c 0.3281,-0.898125 1.1944,-1.50375 2.1563,-1.486875 l 3.1593,0.03562 -0.6562,1.72875 c -0.3263,0.88875 -1.1813,1.485 -2.1319,1.485 z m -2.1506,-0.740625 2.1319,0.0225 c 0.01,0 0.011,0 0.017,0 0.6507,0 1.2357,-0.40875 1.4588,-1.02 l 0.2925,-0.7725 -2.1319,-0.0225 c -0.01,0 -0.011,0 -0.017,0 -0.6506,0 -1.2356,0.40875 -1.4587,1.02 z"
       id="path7"
       style="stroke-width:0.1875;fill:#b7d539;fill-opacity:1" /><path
       class="st2"
       d="m -1757.1605,16.166309 c 0.039,0.01125 0.1125,0.01875 0.1538,0.01875 0.1931,-0.0019 0.3393,-0.07687 0.4256,-0.286875 l 0.6581,-1.59 h -0.2681 l -0.4181,1.048125 -0.4182,-1.048125 h -0.2643 l 0.5493,1.35 -0.077,0.17625 c -0.041,0.09938 -0.1032,0.129375 -0.1932,0.129375 -0.034,0 -0.081,-0.0075 -0.1106,-0.0225 z m -0.6187,-0.523125 v -0.93 c 0.058,-0.09938 0.2268,-0.193125 0.3506,-0.193125 0.034,0 0.062,0.0038 0.086,0.0075 v -0.25125 c -0.1762,0 -0.3356,0.10125 -0.4368,0.234375 v -0.204375 h -0.2494 v 1.335 h 0.2494 z m -0.7275,0.03187 c 0.1293,0 0.2081,-0.03562 0.2606,-0.08625 l -0.064,-0.1875 c -0.024,0.02813 -0.077,0.0525 -0.135,0.0525 -0.086,0 -0.1293,-0.06937 -0.1293,-0.163125 v -0.766875 h 0.2718 v -0.2175 h -0.2718 v -0.365625 h -0.2494 v 0.365625 h -0.2213 v 0.2175 h 0.2213 v 0.82125 c 0,0.211875 0.1069,0.33 0.3169,0.33 m -1.7775,-0.20625 c 0.135,0.13875 0.3318,0.20625 0.555,0.20625 0.3506,0 0.54,-0.18 0.54,-0.40875 0,-0.3075 -0.2757,-0.37125 -0.5082,-0.42375 -0.1668,-0.03937 -0.3093,-0.07687 -0.3093,-0.193125 0,-0.106875 0.105,-0.174375 0.2737,-0.174375 0.1688,0 0.3188,0.06938 0.3956,0.163125 l 0.1107,-0.174375 c -0.1125,-0.106875 -0.2794,-0.19125 -0.5082,-0.19125 -0.3262,0 -0.5081,0.181875 -0.5081,0.395625 0,0.286875 0.2644,0.34875 0.4913,0.40125 0.1725,0.03938 0.3243,0.0825 0.3243,0.215625 0,0.1125 -0.099,0.19125 -0.2887,0.19125 -0.18,0 -0.3563,-0.09187 -0.4481,-0.19125 z m -0.2813,0.174375 v -1.335 h -0.2494 v 0.96 c -0.075,0.09938 -0.2156,0.1875 -0.3712,0.1875 -0.1725,0 -0.2831,-0.06562 -0.2831,-0.286875 v -0.860625 h -0.2494 v 0.943125 c 0,0.28125 0.1406,0.425625 0.4256,0.425625 0.2044,0 0.3731,-0.105 0.4763,-0.215625 v 0.181875 z m -1.7962,-0.3825 c -0.069,0.10875 -0.2194,0.193125 -0.3713,0.193125 -0.2494,0 -0.4031,-0.2025 -0.4031,-0.478125 0,-0.279375 0.1556,-0.481875 0.4031,-0.481875 0.1519,0 0.3019,0.08812 0.3713,0.196875 z m 0.2475,0.3825 v -1.845 h -0.2475 v 0.70125 c -0.1088,-0.144375 -0.2663,-0.226875 -0.4369,-0.226875 -0.3488,0 -0.5981,0.27375 -0.5981,0.70125 0,0.436875 0.2493,0.699375 0.5981,0.699375 0.1762,0 0.3375,-0.09187 0.4369,-0.223125 v 0.19125 h 0.2475 z m -1.5957,0 v -0.9375 c 0,-0.28125 -0.1462,-0.43125 -0.4275,-0.43125 -0.2081,0 -0.3843,0.1125 -0.4725,0.22125 v -0.1875 h -0.2475 v 1.335 h 0.2475 v -0.954375 c 0.071,-0.09937 0.2138,-0.193125 0.3675,-0.193125 0.1707,0 0.285,0.07125 0.285,0.2925 v 0.855 z m -1.5562,-1.845 h -0.2756 v 1.845 h 0.2756 z m -2.4056,1.670625 c 0.135,0.13875 0.3318,0.20625 0.555,0.20625 0.3506,0 0.54,-0.18 0.54,-0.40875 0,-0.3075 -0.2757,-0.37125 -0.5082,-0.42375 -0.1668,-0.03937 -0.3093,-0.07687 -0.3093,-0.193125 0,-0.106875 0.105,-0.174375 0.2737,-0.174375 0.1688,0 0.3188,0.06938 0.3956,0.163125 l 0.1107,-0.174375 c -0.1125,-0.106875 -0.2794,-0.19125 -0.5082,-0.19125 -0.3262,0 -0.5081,0.181875 -0.5081,0.395625 0,0.286875 0.2644,0.34875 0.4913,0.40125 0.1725,0.03938 0.3243,0.0825 0.3243,0.215625 0,0.1125 -0.099,0.19125 -0.2868,0.19125 -0.18,0 -0.3563,-0.09187 -0.4482,-0.19125 z m -0.2794,0.174375 v -0.9375 c 0,-0.28125 -0.1463,-0.43125 -0.4294,-0.43125 -0.2081,0 -0.3844,0.1125 -0.4725,0.22125 v -0.1875 h -0.2494 v 1.335 h 0.2494 v -0.954375 c 0.071,-0.09937 0.2138,-0.193125 0.3675,-0.193125 0.1725,0 0.285,0.07125 0.285,0.2925 v 0.855 z m -1.5469,-1.335 h -0.2494 v 1.335 h 0.2494 z m -0.1256,-0.225 c 0.088,0 0.1612,-0.06937 0.1612,-0.1575 0,-0.08812 -0.071,-0.159375 -0.1612,-0.159375 -0.086,0 -0.1594,0.07125 -0.1594,0.159375 0,0.08812 0.073,0.1575 0.1594,0.1575 m -0.7688,1.2675 c -0.075,0.09938 -0.2043,0.151875 -0.3431,0.151875 -0.18,0 -0.3075,-0.10875 -0.3075,-0.26625 0,-0.1575 0.1275,-0.26625 0.3075,-0.26625 0.1388,0 0.2681,0.0525 0.3431,0.151875 z m 0.2475,0.2925 v -0.901875 c 0,-0.34125 -0.2456,-0.466875 -0.5362,-0.466875 -0.2156,0 -0.3975,0.07125 -0.5475,0.2175 l 0.1069,0.1725 c 0.1181,-0.12 0.2493,-0.178125 0.4012,-0.178125 0.1913,0 0.3263,0.09938 0.3263,0.26625 v 0.22125 c -0.1032,-0.118125 -0.2569,-0.17625 -0.4369,-0.17625 -0.225,0 -0.465,0.133125 -0.465,0.436875 0,0.294375 0.2437,0.4425 0.465,0.4425 0.18,0 0.3319,-0.06375 0.4369,-0.18 v 0.14625 z m -1.7587,0 v -0.93 c 0.058,-0.09938 0.2269,-0.193125 0.3506,-0.193125 0.034,0 0.06,0.0038 0.086,0.0075 v -0.25125 c -0.1763,0 -0.3357,0.10125 -0.4369,0.234375 v -0.204375 h -0.2494 v 1.335 h 0.2494 z m -2.2969,-0.920625 c 0,0.575625 0.4294,0.95625 0.9563,0.95625 0.3131,0 0.5662,-0.129375 0.7443,-0.32625 v -0.676875 h -0.8681 v 0.24375 h 0.5925 v 0.331875 c -0.088,0.0825 -0.2625,0.181875 -0.4669,0.181875 -0.3843,0 -0.6731,-0.298125 -0.6731,-0.710625 0,-0.414375 0.2888,-0.70875 0.6731,-0.70875 0.2157,0 0.4013,0.10875 0.5063,0.249375 l 0.2231,-0.129375 c -0.1556,-0.208125 -0.3844,-0.365625 -0.7294,-0.365625 -0.5306,0 -0.9581,0.37875 -0.9581,0.954375"
       id="path8"
       style="stroke-width:0.1875" /><path
       class="st2"
       d="m -1757.6611,12.335684 v -0.9375 c 0,-0.28125 -0.1463,-0.43125 -0.4294,-0.43125 -0.2081,0 -0.3844,0.1125 -0.4725,0.22125 v -0.1875 h -0.2494 v 1.335 h 0.2494 v -0.954375 c 0.071,-0.09938 0.2138,-0.193125 0.3675,-0.193125 0.1725,0 0.285,0.07125 0.285,0.2925 v 0.855 z m -1.7963,-0.2925 c -0.075,0.09938 -0.2043,0.151875 -0.3431,0.151875 -0.18,0 -0.3075,-0.10875 -0.3075,-0.26625 0,-0.1575 0.1275,-0.26625 0.3075,-0.26625 0.1388,0 0.2681,0.0525 0.3431,0.151875 z m 0.2475,0.2925 v -0.901875 c 0,-0.34125 -0.2456,-0.466875 -0.5362,-0.466875 -0.2156,0 -0.3975,0.07125 -0.5475,0.2175 l 0.1069,0.1725 c 0.1181,-0.12 0.2493,-0.178125 0.4012,-0.178125 0.1913,0 0.3263,0.09938 0.3263,0.26625 v 0.22125 c -0.1032,-0.118125 -0.2569,-0.17625 -0.4369,-0.17625 -0.225,0 -0.465,0.133125 -0.465,0.436875 0,0.2925 0.2437,0.4425 0.465,0.4425 0.18,0 0.3319,-0.06375 0.4369,-0.18 v 0.14625 z m -1.4681,-1.335 h -0.2494 v 1.335 h 0.2494 z m -0.1275,-0.225 c 0.088,0 0.1594,-0.06938 0.1594,-0.1575 0,-0.08812 -0.071,-0.16125 -0.1594,-0.16125 -0.086,0 -0.1594,0.07125 -0.1594,0.16125 0,0.08812 0.075,0.1575 0.1594,0.1575 m -0.5175,-0.285 h -0.2494 v 1.845 h 0.2494 z m -0.8944,1.5525 c -0.075,0.09938 -0.2043,0.151875 -0.3431,0.151875 -0.18,0 -0.3075,-0.10875 -0.3075,-0.26625 0,-0.1575 0.1275,-0.26625 0.3075,-0.26625 0.1388,0 0.2681,0.0525 0.3431,0.151875 z m 0.2475,0.2925 v -0.901875 c 0,-0.34125 -0.2456,-0.466875 -0.5362,-0.466875 -0.2156,0 -0.3975,0.07125 -0.5475,0.2175 l 0.1069,0.1725 c 0.1181,-0.12 0.2493,-0.178125 0.4012,-0.178125 0.1913,0 0.3263,0.09938 0.3263,0.26625 v 0.22125 c -0.1032,-0.118125 -0.2569,-0.17625 -0.4369,-0.17625 -0.225,0 -0.465,0.133125 -0.465,0.436875 0,0.2925 0.2437,0.4425 0.465,0.4425 0.18,0 0.3319,-0.06375 0.4369,-0.18 v 0.14625 z m -1.7587,0 v -0.93 c 0.058,-0.09938 0.2269,-0.193125 0.3506,-0.193125 0.034,0 0.06,0.0019 0.086,0.0075 v -0.25125 c -0.1763,0 -0.3357,0.103125 -0.4369,0.234375 v -0.204375 h -0.2494 v 1.335 h 0.2494 z m -0.7275,0.03187 c 0.1294,0 0.2081,-0.03562 0.2606,-0.08625 l -0.064,-0.1875 c -0.024,0.02812 -0.077,0.0525 -0.135,0.0525 -0.086,0 -0.1294,-0.06938 -0.1294,-0.163125 v -0.766875 h 0.2719 v -0.2175 h -0.2719 v -0.365625 h -0.2475 v 0.365625 h -0.2213 v 0.2175 h 0.2213 v 0.82125 c 0,0.211875 0.105,0.33 0.315,0.33 m -1.7775,-0.20625 c 0.135,0.13875 0.3319,0.20625 0.555,0.20625 0.3506,0 0.54,-0.18 0.54,-0.40875 0,-0.3075 -0.2756,-0.37125 -0.5081,-0.42375 -0.1669,-0.03937 -0.3094,-0.07688 -0.3094,-0.193125 0,-0.10875 0.105,-0.174375 0.2737,-0.174375 0.1688,0 0.3188,0.06937 0.3957,0.163125 l 0.1106,-0.174375 c -0.1125,-0.10875 -0.2794,-0.19125 -0.5081,-0.19125 -0.3263,0 -0.5082,0.181875 -0.5082,0.395625 0,0.28875 0.2644,0.34875 0.4913,0.40125 0.1706,0.03937 0.3244,0.0825 0.3244,0.215625 0,0.114375 -0.099,0.19125 -0.2888,0.19125 -0.18,0 -0.3562,-0.09187 -0.4481,-0.19125 z m -0.2794,0.174375 v -1.335 h -0.2494 v 0.96 c -0.075,0.09938 -0.2156,0.1875 -0.3712,0.1875 -0.1725,0 -0.2831,-0.06563 -0.2831,-0.286875 v -0.860625 h -0.2494 v 0.943125 c 0,0.28125 0.1406,0.425625 0.4256,0.425625 0.2044,0 0.3731,-0.105 0.4763,-0.215625 v 0.181875 z m -1.8675,-0.628125 h -0.7444 l 0.3713,-0.976875 z m 0.5344,0.628125 -0.7331,-1.845 h -0.345 l -0.7332,1.845 h 0.3038 l 0.15,-0.3825 h 0.9037 l 0.15,0.3825 z m -3.3019,-1.164375 c 0.2813,0 0.4013,0.22125 0.4069,0.399375 h -0.8156 c 0.013,-0.18375 0.1406,-0.399375 0.4087,-0.399375 m -0.6694,0.495 c 0,0.42 0.2925,0.703125 0.6919,0.703125 0.2156,0 0.4031,-0.06938 0.5363,-0.19875 l -0.1163,-0.163125 c -0.099,0.103125 -0.255,0.1575 -0.3956,0.1575 -0.2681,0 -0.435,-0.1875 -0.4538,-0.414375 h 1.0575 v -0.06 c 0,-0.40875 -0.2493,-0.721875 -0.6487,-0.721875 -0.3919,-0.0019 -0.6713,0.309375 -0.6713,0.6975 m -0.315,0.669375 v -0.943125 c 0,-0.28125 -0.1443,-0.425625 -0.4293,-0.425625 -0.2044,0 -0.3844,0.1125 -0.4725,0.22125 v -0.695625 h -0.2494 v 1.845 h 0.2494 v -0.954375 c 0.071,-0.09938 0.2137,-0.193125 0.3675,-0.193125 0.1725,0 0.285,0.06563 0.285,0.286875 v 0.860625 h 0.2493 z m -1.6293,0.03187 c 0.1293,0 0.2081,-0.03562 0.2606,-0.08625 l -0.064,-0.1875 c -0.024,0.02812 -0.077,0.0525 -0.135,0.0525 -0.086,0 -0.1293,-0.06938 -0.1293,-0.163125 v -0.766875 h 0.2718 v -0.2175 h -0.2718 v -0.365625 h -0.2475 v 0.365625 h -0.2213 v 0.2175 h 0.2213 v 0.82125 c 0,0.211875 0.105,0.33 0.315,0.33"
       id="path9"
       style="stroke-width:0.1875" /><path
       class="st2"
       d="m -1759.733,9.028184 v -0.93 c 0.058,-0.099375 0.2269,-0.193125 0.3506,-0.193125 0.034,0 0.062,0.00375 0.086,0.00938 v -0.25125 c -0.1763,0 -0.3338,0.10125 -0.4369,0.234375 v -0.20438 h -0.2494 v 1.335 z m -1.2375,-0.1875 c -0.2662,0 -0.4144,-0.226875 -0.4144,-0.481875 0,-0.25125 0.15,-0.478125 0.4144,-0.478125 0.2681,0 0.4144,0.226875 0.4144,0.478125 0,0.255 -0.1463,0.481875 -0.4144,0.481875 m 0,0.219375 c 0.4181,0 0.675,-0.315 0.675,-0.703125 0,-0.384375 -0.2569,-0.699375 -0.675,-0.699375 -0.4144,0 -0.675,0.315 -0.675,0.699375 0,0.388125 0.2588,0.703125 0.675,0.703125 m -0.8306,-1.149375 v -0.2175 h -0.27 V 7.605059 c 0,-0.16125 0.075,-0.24375 0.1987,-0.24375 0.045,0 0.086,0.01125 0.1182,0.03 l 0.058,-0.185625 c -0.058,-0.03375 -0.1331,-0.050625 -0.2194,-0.050625 -0.2381,0 -0.4069,0.159375 -0.4069,0.448125 v 0.088125 h -0.2212 v 0.2175 h 0.2212 v 1.1175 h 0.2494 v -1.1175 h 0.2719 z m -2.7038,0.943125 c 0.135,0.13875 0.3319,0.20625 0.555,0.20625 0.3507,0 0.54,-0.18 0.54,-0.40875 0,-0.3075 -0.2756,-0.37125 -0.5081,-0.42375 -0.1669,-0.039375 -0.3094,-0.076875 -0.3094,-0.193125 0,-0.10875 0.105,-0.174375 0.2738,-0.174375 0.1687,0 0.3187,0.069375 0.3956,0.163125 l 0.1106,-0.174375 c -0.1125,-0.106875 -0.2793,-0.19125 -0.5081,-0.19125 -0.3262,0 -0.5081,0.181875 -0.5081,0.395625 0,0.28875 0.2644,0.34875 0.4912,0.40125 0.1707,0.039375 0.3244,0.0825 0.3244,0.215625 0,0.1125 -0.099,0.19125 -0.2869,0.19125 -0.18,0 -0.3562,-0.091875 -0.4481,-0.19125 z m -1.3387,-0.495 c 0,0.40125 0.2756,0.703125 0.6806,0.703125 0.2513,0 0.4031,-0.105 0.5006,-0.234375 l -0.1668,-0.151875 c -0.081,0.110625 -0.1875,0.166875 -0.3225,0.166875 -0.2625,0 -0.4313,-0.204375 -0.4313,-0.481875 0,-0.2775 0.1688,-0.478125 0.4313,-0.478125 0.135,0 0.2437,0.0525 0.3225,0.165 l 0.1668,-0.151875 c -0.098,-0.129375 -0.2493,-0.234375 -0.5006,-0.234375 -0.405,-0.00188 -0.6806,0.29625 -0.6806,0.6975 m -0.3131,-0.665625 h -0.2494 v 1.335 h 0.2494 z m -0.1275,-0.225 c 0.088,0 0.1612,-0.069375 0.1612,-0.1575 0,-0.088125 -0.071,-0.159375 -0.1612,-0.159375 -0.086,0 -0.1594,0.07125 -0.1594,0.159375 0,0.088125 0.075,0.1575 0.1594,0.1575 m -0.6,1.591875 c 0.1293,0 0.2081,-0.035625 0.2606,-0.08625 l -0.064,-0.1875 c -0.024,0.028125 -0.077,0.0525 -0.135,0.0525 -0.086,0 -0.1293,-0.069375 -0.1293,-0.163125 V 7.908809 h 0.2718 v -0.2175 h -0.2718 V 7.325684 h -0.2494 v 0.365625 h -0.2213 v 0.2175 h 0.2213 v 0.82125 c 0,0.211875 0.1069,0.33 0.3169,0.33 m -1.8075,0.49125 c 0.039,0.01125 0.1125,0.01875 0.1556,0.01875 0.1931,-0.00375 0.3394,-0.076875 0.4256,-0.286875 l 0.6581,-1.59 h -0.2681 l -0.4181,1.048125 -0.4181,-1.048125 h -0.2663 l 0.5513,1.35 -0.077,0.17625 c -0.041,0.099375 -0.1031,0.129375 -0.1931,0.129375 -0.034,0 -0.081,-0.0075 -0.1107,-0.0225 z m -0.33,-2.368125 h -0.2494 v 1.845 h 0.2494 z m -0.8963,1.5525 c -0.075,0.099375 -0.2044,0.151875 -0.3431,0.151875 -0.18,0 -0.3075,-0.10875 -0.3075,-0.26625 0,-0.1575 0.1275,-0.26625 0.3075,-0.26625 0.1387,0 0.2681,0.0525 0.3431,0.151875 z m 0.2494,0.2925 V 8.126309 c 0,-0.34125 -0.2456,-0.466875 -0.5363,-0.466875 -0.2156,0 -0.3975,0.07125 -0.5475,0.2175 l 0.1069,0.1725 c 0.1181,-0.12 0.2494,-0.178125 0.4013,-0.178125 0.1912,0 0.3262,0.099375 0.3262,0.26625 v 0.22125 c -0.1031,-0.118125 -0.2569,-0.17625 -0.4369,-0.17625 -0.2231,0 -0.465,0.133125 -0.465,0.436875 0,0.294375 0.2438,0.4425 0.465,0.4425 0.18,0 0.3319,-0.06375 0.4369,-0.18 v 0.14625 z m -1.4681,0 v -0.9375 c 0,-0.28125 -0.1463,-0.43125 -0.4294,-0.43125 -0.2081,0 -0.3844,0.1125 -0.4725,0.22125 v -0.1875 h -0.2494 v 1.335 h 0.2494 V 8.073809 c 0.071,-0.099375 0.2137,-0.193125 0.3675,-0.193125 0.1725,0 0.285,0.07125 0.285,0.2925 v 0.855 z m -1.9013,-0.628125 h -0.7444 l 0.3713,-0.976875 z m 0.5344,0.628125 -0.7331,-1.845 h -0.345 l -0.7332,1.845 h 0.3038 l 0.15,-0.3825 h 0.9037 l 0.15,0.3825 z"
       id="path10"
       style="stroke-width:0.1875" /><path
       class="st2"
       d="m -1755.893,0.091934 h -0.8437 v 5.62875 h 0.8437 z m -7.1137,2.818125 c 0,1.755 1.3087,2.919375 2.9193,2.919375 0.9525,0 1.7307,-0.395625 2.2688,-0.995625 V 2.765684 h -2.6494 v 0.7425 h 1.8056 v 1.0125 c -0.27,0.253125 -0.8006,0.556875 -1.425,0.556875 -1.1737,0 -2.0493,-0.91125 -2.0493,-2.169375 0,-1.265625 0.8775,-2.16 2.0493,-2.16 0.6582,0 1.2225,0.328125 1.5432,0.759375 l 0.6843,-0.395625 c -0.4725,-0.63375 -1.1737,-1.11375 -2.2275,-1.11375 -1.6106,0.001875 -2.9193,1.156875 -2.9193,2.911875 m -1.7625,0.894375 h -2.2688 l 1.1306,-2.9775 z m 1.6275,1.91625 -2.235,-5.62875 h -1.0538 l -2.235,5.62875 h 0.9281 l 0.4557,-1.164375 h 2.7581 l 0.4556,1.164375 z m -7.2469,-1.91625 h -2.2706 l 1.1306,-2.9775 z m 1.6294,1.91625 -2.235,-5.62875 h -1.0538 l -2.2369,5.62875 h 0.9282 l 0.4556,-1.164375 h 2.7581 l 0.4556,1.164375 z"
       id="path11"
       style="stroke-width:0.1875" /><path
       class="st0"
       d="m -1777.3123,28.430669 c -1.0937,0 -2.0832,-0.298945 -2.838,-0.821103 -0.7568,-0.526026 -1.2847,-1.261963 -1.4891,-2.181563 -0.059,-0.264755 -0.087,-0.533613 -0.087,-0.804111 0,-0.898711 0.316,-1.825664 0.893,-2.656406 -0.2497,-0.179765 -0.4843,-0.402949 -0.6906,-0.665888 -0.7227,0.997002 -1.1465,2.149218 -1.1484,3.322294 0,0.336856 0.036,0.673652 0.1097,1.006611 0.2535,1.161621 0.9403,2.113359 1.8731,2.756543 0.9347,0.643359 2.1115,0.989619 3.3773,0.989619 0.6886,0 1.4057,-0.102188 2.1266,-0.317813 l -0.6244,-0.809853 c -0.5127,0.123076 -1.0178,0.18167 -1.5022,0.18167 z"
       id="path1-9"
       style="stroke-width:0.0292969;fill:#414042;fill-opacity:1" /><path
       class="st0"
       d="m -1770.8397,20.300729 c -0.4636,-0.69252 -1.122,-1.226133 -1.894,-1.583642 -0.7738,-0.357715 -1.6593,-0.541202 -2.5901,-0.543047 -0.719,0 -1.4663,0.109746 -2.2136,0.338672 -0.3161,0.09644 -0.6206,0.210058 -0.9139,0.342363 0,0.0057 0.01,0.0096 0.011,0.01515 0.1854,0.261094 0.3349,0.537305 0.4408,0.815567 0.2365,-0.102188 0.4825,-0.19125 0.736,-0.268653 0.6603,-0.200654 1.315,-0.297129 1.9393,-0.297129 0.8079,0 1.5591,0.160752 2.191,0.456006 0.6356,0.293233 1.1503,0.71707 1.506,1.250508 0.1343,0.200654 0.1854,0.374707 0.1854,0.507187 0,0.08701 -0.019,0.158906 -0.064,0.23836 -0.034,0.05859 -0.085,0.123046 -0.1646,0.187353 -0.1173,0.09832 -0.299,0.202324 -0.5581,0.28752 -0.2574,0.0852 -0.5904,0.153339 -1.0009,0.189199 -0.4919,0.04175 -0.9025,0.221338 -1.1882,0.505136 -0.2857,0.280108 -0.4313,0.65666 -0.4313,1.023604 0,0.402978 0.1702,0.802265 0.4843,1.093623 0.3122,0.293232 0.7644,0.46913 1.2866,0.467285 0.032,0 0.064,0 0.098,-0.0018 v 0 c 0.03,-0.0019 0.062,-0.0019 0.093,-0.0019 0.193,0 0.3349,0.02458 0.4352,0.05859 0.1495,0.05118 0.2081,0.109746 0.2478,0.166465 0.038,0.05672 0.061,0.13248 0.061,0.223359 0,0.06984 -0.013,0.14376 -0.036,0.20417 -0.021,0.06246 -0.051,0.109746 -0.062,0.123047 -0.3084,0.357539 -0.666,0.690644 -1.0672,0.985752 l 0.5241,0.787089 c 0.4712,-0.340517 0.8931,-0.732216 1.2602,-1.156083 0.1078,-0.126739 0.1835,-0.270498 0.2403,-0.427559 0.053,-0.158877 0.087,-0.331113 0.087,-0.516416 0,-0.160928 -0.027,-0.333135 -0.091,-0.501445 -0.096,-0.253477 -0.2913,-0.497578 -0.5694,-0.654609 -0.2782,-0.160752 -0.6207,-0.23836 -1.0293,-0.23836 -0.044,0 -0.089,0.0018 -0.1382,0.0037 h -0.057 c -0.3197,-0.0018 -0.5165,-0.09829 -0.6414,-0.21375 -0.1248,-0.117364 -0.1816,-0.26294 -0.1835,-0.401133 0,-0.126738 0.045,-0.245918 0.1514,-0.351797 0.1059,-0.104209 0.2876,-0.206396 0.6054,-0.234668 0.8306,-0.07389 1.4588,-0.259218 1.9185,-0.567597 0.229,-0.155186 0.4144,-0.344414 0.5412,-0.565752 0.1286,-0.219492 0.191,-0.467285 0.191,-0.711357 0,-0.368965 -0.1343,-0.718916 -0.3443,-1.033008 z"
       id="path2-5"
       style="stroke-width:0.0292969;fill:#414042;fill-opacity:1" /><path
       class="st0"
       d="m -1772.556,21.579303 c 0.155,-0.155215 0.2439,-0.369346 0.2439,-0.588662 0,-0.219317 -0.089,-0.433652 -0.2439,-0.588867 -0.1552,-0.154834 -0.3694,-0.243692 -0.5887,-0.243692 -0.2193,0 -0.4336,0.08886 -0.5887,0.243692 -0.155,0.155215 -0.2438,0.369521 -0.2438,0.588867 0,0.219316 0.089,0.433447 0.2438,0.588662 0.1551,0.15501 0.3694,0.243867 0.5887,0.243867 0.2193,2.9e-5 0.4335,-0.08883 0.5887,-0.243867 z"
       id="path3-4"
       style="stroke-width:0.0292969;fill:#ffbc42;fill-opacity:1" /><path
       class="st0"
       d="m -1779.4026,23.587369 c 0.1251,-0.376729 -0.079,-0.783603 -0.456,-0.908877 -0.3767,-0.125098 -0.7836,0.07887 -0.9088,0.455801 -0.1251,0.376728 0.079,0.783603 0.456,0.909052 0.3765,0.124922 0.7836,-0.07904 0.9088,-0.455976 z"
       id="path4-9"
       style="stroke-width:0.0292969;fill:#b6d438;fill-opacity:1" /><path
       class="st0"
       d="m -1779.3924,26.439976 c 0.2585,-0.273252 0.2465,-0.704326 -0.027,-0.962812 -0.2733,-0.258663 -0.7043,-0.246651 -0.9628,0.02663 -0.2587,0.273077 -0.2469,0.704151 0.026,0.962813 0.2731,0.258457 0.7043,0.246445 0.963,-0.02663 z"
       id="path5-1"
       style="stroke-width:0.0292969;fill:#54921e;fill-opacity:1" /><path
       class="st0"
       d="m -1775.8242,21.17486 c 0.4359,-0.05063 0.7483,-0.445108 0.6975,-0.880987 -0.051,-0.435878 -0.4451,-0.748124 -0.881,-0.697499 -0.436,0.05063 -0.7483,0.444931 -0.6975,0.880986 0.051,0.435879 0.445,0.7483 0.881,0.6975 z"
       id="path6-7"
       style="stroke-width:0.0292969;fill:#00808b;fill-opacity:1" /><path
       class="st0"
       d="m -1781.1708,20.828073 c 0.4434,0.618046 1.0758,1.030429 1.6509,1.077011 l 0.024,0.0022 1.0796,-0.77455 0.01,-0.02347 c 0.1398,-0.559658 -0.048,-1.291142 -0.4914,-1.908838 -0.4206,-0.586054 -0.9104,-0.988125 -1.3844,-1.377246 -0.3233,-0.265312 -0.6579,-0.540058 -0.9702,-0.87246 -0.2585,-0.275303 -0.3455,-0.411299 -0.3458,-0.411651 l -0.084,-0.137109 -0.07,0.08279 c -0.3264,0.38543 -0.4568,1.080146 -0.3585,1.905703 0.103,0.866894 0.4386,1.73291 0.9441,2.437617 z m 0.2407,-1.026035 c 0.3521,0.398378 0.5165,0.13746 0.3047,-0.268653 -0.266,-0.509414 0,-0.527695 0.1664,-0.36917 0.1631,0.157969 0.3674,0.511992 0.5434,0.410567 0.1058,-0.06097 -0.01,-0.280313 -0.1576,-0.612686 -0.086,-0.190312 -0.012,-0.475781 0.4307,-0.0948 0.1616,0.162421 0.3149,0.337587 0.4576,0.536396 0.3095,0.430869 0.456,0.950039 0.3844,1.357295 l -0.9243,0.663339 c -0.4091,-0.06246 -0.8532,-0.367705 -1.163,-0.799335 -0.1186,-0.165557 -0.2274,-0.344766 -0.3246,-0.533233 -0.01,-0.02698 -0.022,-0.05578 -0.036,-0.08631 -0.1543,-0.339756 -0.034,-0.601377 0.3185,-0.203408 z"
       id="path7-5"
       style="stroke-width:0.0292969;fill:#ec8525;fill-opacity:1" /><path
       class="st0"
       d="m -1777.7724,21.788483 c -0.2258,-0.0922 -0.4406,-0.08186 -0.5938,0.02789 l -0.4978,0.357334 c -0.1534,0.109746 -0.2317,0.310225 -0.217,0.553359 0.015,0.24334 0.1217,0.508682 0.2952,0.733887 l 0.7867,1.019912 1.5414,-1.10584 -0.7141,-1.07165 c -0.1577,-0.236836 -0.3749,-0.422695 -0.6006,-0.514892 z"
       id="path8-5"
       style="stroke-width:0.0292969;fill:#414042;fill-opacity:1" /><path
       class="st0"
       d="m -1776.2039,23.756236 -1.5153,1.087002 4.6942,6.085839 c 0.3255,0.422197 0.806,0.591269 1.0935,0.385429 v -0.003 c 0.2873,-0.206015 0.2808,-0.715429 -0.015,-1.159042 z"
       id="path9-4"
       style="stroke-width:0.0292969;fill:#414042;fill-opacity:1" /></g><metadata
     id="metadata207"><rdf:RDF><cc:Work><dc:format>image/svg+xml</dc:format><dc:type
           rdf:resource="http://purl.org/dc/dcmitype/StillImage" /><cc:license
           rdf:resource="http://creativecommons.org/publicdomain/zero/1.0/" /><dc:publisher><cc:Agent
             rdf:about="http://openclipart.org/"><dc:title /></cc:Agent></dc:publisher><dc:description>R AAGIThemes package hex sticker SVG file source</dc:description><dc:creator><cc:Agent><dc:title>adamhsparks</dc:title></cc:Agent></dc:creator><dc:subject><rdf:Bag><rdf:li>R</rdf:li><rdf:li>hexsticker</rdf:li></rdf:Bag></dc:subject><dc:rights><cc:Agent><dc:title>CC0</dc:title></cc:Agent></dc:rights><dc:title>AAGIPalettes</dc:title></cc:Work><cc:License
         rdf:about="http://creativecommons.org/publicdomain/zero/1.0/"><cc:permits
           rdf:resource="http://creativecommons.org/ns#Reproduction" /><cc:permits
           rdf:resource="http://creativecommons.org/ns#Distribution" /><cc:permits
           rdf:resource="http://creativecommons.org/ns#DerivativeWorks" /></cc:License></rdf:RDF></metadata><style
     type="text/css"
     id="style1">
	.st0{fill:#B7D539;}
	.st1{fill:#00808C;}
	.st2{fill:#FFFFFF;}
</style><style
     type="text/css"
     id="style1-3">
	.st0{fill:#B7D438;}
	.st1{fill:#00818D;}
	.st2{fill:#414042;}
</style><style
     type="text/css"
     id="style1-5">
	.st0{fill:#000000;}
</style></svg>
